<svg width="256" height="256" viewBox="0 0 256 256" fill="none" xmlns="http://www.w3.org/2000/svg">
    <circle cx="128" cy="128" r="128" fill="#F5F5F5"/>
    <path fill-rule="evenodd" clip-rule="evenodd" d="M131.885 77.311C135.365 75.2322 139.157 75 143.259 75H206.252C210.478 75 214.27 75.2322 217.626 77.311C221.106 79.2676 223.841 81.9579 225.83 85.3819C227.943 88.6836 229 92.3522 229 96.3876V135.519H135.047V160.89C135.047 162.846 135.73 164.558 137.098 166.026C138.589 167.371 140.33 168.043 142.319 168.043H229V182H143.259H112.741H27V168.043H113.681C115.67 168.043 117.411 167.371 118.902 166.026C120.27 164.558 120.953 162.846 120.953 160.89V135.519H27V96.3876C27 92.3522 28.0566 88.6836 30.1698 85.3819C32.1588 81.9579 34.8935 79.2676 38.3742 77.311C41.7305 75.2322 45.5218 75 49.7483 75H112.741C116.843 75 120.635 75.2322 124.115 77.311C125.455 78.0918 126.769 78.9894 128 80.0039C129.231 78.9894 130.545 78.0918 131.885 77.311ZM214.796 121.522H135.047V96.3876C135.047 94.431 135.73 92.7802 137.098 91.435C138.589 89.9676 140.33 89.2339 142.319 89.2339H207.524C209.513 89.2339 211.191 89.9676 212.558 91.435C214.05 92.7802 214.796 94.431 214.796 96.3876V121.522ZM41.093 121.522H120.953V96.3876C120.953 94.431 120.27 92.7802 118.902 91.435C117.411 89.9676 115.67 89.2339 113.681 89.2339H48.4763C46.4874 89.2339 44.8092 89.9676 43.4419 91.435C41.9502 92.7802 41.2043 94.431 41.2043 96.3876L41.093 121.522Z" fill="#262626"/>
</svg>
